<svg width="335" height="17" viewBox="0 0 335 17" fill="none" xmlns="http://www.w3.org/2000/svg">
<path d="M3.38636 7.95455C3.39205 6.82955 4.07955 6.17045 5.06818 6.17045C6.05114 6.17045 6.63068 6.80114 6.625 7.875V13H9.04545V7.44318C9.05114 5.39773 7.84659 4.15909 6.02841 4.15909C4.70455 4.15909 3.81818 4.78409 3.42045 5.8125H3.31818V1.36364H0.965909V13H3.38636V7.95455ZM14.8935 13.1705C17.5412 13.1705 19.1889 11.358 19.1889 8.67045C19.1889 5.96591 17.5412 4.15909 14.8935 4.15909C12.2457 4.15909 10.598 5.96591 10.598 8.67045C10.598 11.358 12.2457 13.1705 14.8935 13.1705ZM14.9048 11.2955C13.6832 11.2955 13.0582 10.1761 13.0582 8.65341C13.0582 7.13068 13.6832 6.00568 14.9048 6.00568C16.1037 6.00568 16.7287 7.13068 16.7287 8.65341C16.7287 10.1761 16.1037 11.2955 14.9048 11.2955ZM25.4048 4.27273H23.7628V2.18182H21.3423V4.27273H20.1491V6.09091H21.3423V10.6364C21.331 12.3466 22.4957 13.1932 24.2514 13.1193C24.8764 13.0966 25.3196 12.9716 25.5639 12.892L25.1832 11.0909C25.0639 11.1136 24.8082 11.1705 24.581 11.1705C24.098 11.1705 23.7628 10.9886 23.7628 10.3182V6.09091H25.4048V4.27273ZM30.831 13.1705C33.1548 13.1705 34.6151 11.8068 34.7287 9.80114H32.4446C32.3026 10.733 31.6889 11.2557 30.8594 11.2557C29.7287 11.2557 28.9957 10.3068 28.9957 8.63636C28.9957 6.98864 29.7344 6.04545 30.8594 6.04545C31.7457 6.04545 32.3139 6.63068 32.4446 7.5H34.7287C34.6264 5.48295 33.098 4.15909 30.8196 4.15909C28.1719 4.15909 26.5355 5.99432 26.5355 8.67045C26.5355 11.3239 28.1435 13.1705 30.831 13.1705ZM40.2216 13.1705C42.8693 13.1705 44.517 11.358 44.517 8.67045C44.517 5.96591 42.8693 4.15909 40.2216 4.15909C37.5739 4.15909 35.9261 5.96591 35.9261 8.67045C35.9261 11.358 37.5739 13.1705 40.2216 13.1705ZM40.233 11.2955C39.0114 11.2955 38.3864 10.1761 38.3864 8.65341C38.3864 7.13068 39.0114 6.00568 40.233 6.00568C41.4318 6.00568 42.0568 7.13068 42.0568 8.65341C42.0568 10.1761 41.4318 11.2955 40.233 11.2955ZM50.7841 4.27273H49.0511V3.6875C49.0511 3.09659 49.2898 2.75 50 2.75C50.2898 2.75 50.5852 2.8125 50.7784 2.875L51.2045 1.05682C50.9034 0.965909 50.2386 0.818181 49.4943 0.818181C47.8523 0.818181 46.6307 1.74432 46.6307 3.64205V4.27273H45.3977V6.09091H46.6307V13H49.0511V6.09091H50.7841V4.27273ZM56.956 4.27273H55.223V3.6875C55.223 3.09659 55.4616 2.75 56.1719 2.75C56.4616 2.75 56.7571 2.8125 56.9503 2.875L57.3764 1.05682C57.0753 0.965909 56.4105 0.818181 55.6662 0.818181C54.0241 0.818181 52.8026 1.74432 52.8026 3.64205V4.27273H51.5696V6.09091H52.8026V13H55.223V6.09091H56.956V4.27273ZM62.0994 13.1705C64.2585 13.1705 65.7131 12.1193 66.054 10.5L63.8153 10.3523C63.571 11.017 62.946 11.3636 62.1392 11.3636C60.929 11.3636 60.1619 10.5625 60.1619 9.26136V9.25568H66.1051V8.59091C66.1051 5.625 64.3097 4.15909 62.0028 4.15909C59.4347 4.15909 57.7699 5.98295 57.7699 8.67614C57.7699 11.4432 59.4119 13.1705 62.0994 13.1705ZM60.1619 7.75568C60.2131 6.76136 60.9688 5.96591 62.0426 5.96591C63.0938 5.96591 63.821 6.71591 63.8267 7.75568H60.1619ZM71.6619 13.1705C73.821 13.1705 75.2756 12.1193 75.6165 10.5L73.3778 10.3523C73.1335 11.017 72.5085 11.3636 71.7017 11.3636C70.4915 11.3636 69.7244 10.5625 69.7244 9.26136V9.25568H75.6676V8.59091C75.6676 5.625 73.8722 4.15909 71.5653 4.15909C68.9972 4.15909 67.3324 5.98295 67.3324 8.67614C67.3324 11.4432 68.9744 13.1705 71.6619 13.1705ZM69.7244 7.75568C69.7756 6.76136 70.5312 5.96591 71.6051 5.96591C72.6562 5.96591 73.3835 6.71591 73.3892 7.75568H69.7244ZM81.9858 13H89.3267V11.75H83.9176V11.6591L86.5312 8.86364C88.5312 6.72159 89.1222 5.72159 89.1222 4.43182C89.1222 2.63636 87.6676 1.20455 85.6222 1.20455C83.5824 1.20455 82.0312 2.59091 82.0312 4.63636H83.3722C83.3722 3.3125 84.2301 2.43182 85.5767 2.43182C86.8381 2.43182 87.804 3.20455 87.804 4.43182C87.804 5.50568 87.1733 6.30114 85.8267 7.77273L81.9858 11.9773V13ZM95.4688 13.1591C98.0369 13.1591 99.5142 10.983 99.5142 7.18182C99.5142 3.40909 98.0142 1.20455 95.4688 1.20455C92.9233 1.20455 91.4233 3.40909 91.4233 7.18182C91.4233 10.983 92.9006 13.1591 95.4688 13.1591ZM95.4688 11.9091C93.7756 11.9091 92.7869 10.2102 92.7869 7.18182C92.7869 4.15909 93.7869 2.43182 95.4688 2.43182C97.1506 2.43182 98.1506 4.15909 98.1506 7.18182C98.1506 10.2102 97.1619 11.9091 95.4688 11.9091ZM101.673 13H109.014V11.75H103.605V11.6591L106.219 8.86364C108.219 6.72159 108.81 5.72159 108.81 4.43182C108.81 2.63636 107.355 1.20455 105.31 1.20455C103.27 1.20455 101.719 2.59091 101.719 4.63636H103.06C103.06 3.3125 103.918 2.43182 105.264 2.43182C106.526 2.43182 107.491 3.20455 107.491 4.43182C107.491 5.50568 106.861 6.30114 105.514 7.77273L101.673 11.9773V13ZM115.156 13.1591C117.724 13.1591 119.202 10.983 119.202 7.18182C119.202 3.40909 117.702 1.20455 115.156 1.20455C112.611 1.20455 111.111 3.40909 111.111 7.18182C111.111 10.983 112.588 13.1591 115.156 13.1591ZM115.156 11.9091C113.463 11.9091 112.474 10.2102 112.474 7.18182C112.474 4.15909 113.474 2.43182 115.156 2.43182C116.838 2.43182 117.838 4.15909 117.838 7.18182C117.838 10.2102 116.849 11.9091 115.156 11.9091ZM129.429 13.1818C131.361 13.1818 132.634 12 132.861 10.4545H131.52C131.27 11.4091 130.474 11.9773 129.429 11.9773C127.838 11.9773 126.815 10.6591 126.815 8.63636C126.815 6.65909 127.861 5.36364 129.429 5.36364C130.611 5.36364 131.315 6.09091 131.52 6.88636H132.861C132.634 5.25 131.247 4.15909 129.406 4.15909C127.043 4.15909 125.474 6.02273 125.474 8.68182C125.474 11.2955 126.974 13.1818 129.429 13.1818ZM138.366 13.1818C140.73 13.1818 142.321 11.3864 142.321 8.68182C142.321 5.95455 140.73 4.15909 138.366 4.15909C136.003 4.15909 134.412 5.95455 134.412 8.68182C134.412 11.3864 136.003 13.1818 138.366 13.1818ZM138.366 11.9773C136.571 11.9773 135.753 10.4318 135.753 8.68182C135.753 6.93182 136.571 5.36364 138.366 5.36364C140.162 5.36364 140.98 6.93182 140.98 8.68182C140.98 10.4318 140.162 11.9773 138.366 11.9773ZM144.368 16.2727H145.709V11.6591H145.822C146.118 12.1364 146.686 13.1818 148.368 13.1818C150.55 13.1818 152.072 11.4318 152.072 8.65909C152.072 5.90909 150.55 4.15909 148.345 4.15909C146.641 4.15909 146.118 5.20455 145.822 5.65909H145.663V4.27273H144.368V16.2727ZM145.686 8.63636C145.686 6.68182 146.55 5.36364 148.186 5.36364C149.891 5.36364 150.732 6.79545 150.732 8.63636C150.732 10.5 149.868 11.9773 148.186 11.9773C146.572 11.9773 145.686 10.6136 145.686 8.63636ZM154.669 16.25C155.879 16.25 156.737 15.608 157.237 14.2727L160.953 4.29545L159.487 4.27273L157.078 11.2273H156.987L154.578 4.27273H153.124L156.351 13.0455L156.101 13.7273C155.624 15.0341 155.01 15.1591 154.033 14.9091L153.692 16.0909C153.828 16.1591 154.214 16.25 154.669 16.25ZM162.727 13H164.068V7.47727C164.068 6.29545 165 5.43182 166.273 5.43182C166.631 5.43182 167 5.5 167.091 5.52273V4.15909C166.938 4.14773 166.585 4.13636 166.386 4.13636C165.341 4.13636 164.432 4.72727 164.114 5.59091H164.023V4.27273H162.727V13ZM168.68 13H170.021V4.27273H168.68V13ZM169.362 2.81818C169.885 2.81818 170.317 2.40909 170.317 1.90909C170.317 1.40909 169.885 1 169.362 1C168.839 1 168.408 1.40909 168.408 1.90909C168.408 2.40909 168.839 2.81818 169.362 2.81818ZM176 16.4545C178.091 16.4545 179.773 15.5 179.773 13.25V4.27273H178.477V5.65909H178.341C178.045 5.20455 177.5 4.15909 175.795 4.15909C173.591 4.15909 172.068 5.90909 172.068 8.59091C172.068 11.3182 173.659 12.8636 175.773 12.8636C177.477 12.8636 178.023 11.8636 178.318 11.3864H178.432V13.1591C178.432 14.6136 177.409 15.2727 176 15.2727C174.415 15.2727 173.858 14.4375 173.5 13.9545L172.432 14.7045C172.977 15.6193 174.051 16.4545 176 16.4545ZM175.955 11.6591C174.273 11.6591 173.409 10.3864 173.409 8.56818C173.409 6.79545 174.25 5.36364 175.955 5.36364C177.591 5.36364 178.455 6.68182 178.455 8.56818C178.455 10.5 177.568 11.6591 175.955 11.6591ZM183.568 7.75C183.568 6.22727 184.54 5.36364 185.864 5.36364C187.125 5.36364 187.886 6.15909 187.886 7.54545V13H189.227V7.45455C189.227 5.21023 188.034 4.15909 186.25 4.15909C184.875 4.15909 184.091 4.73295 183.682 5.63636H183.568V1.36364H182.227V13H183.568V7.75ZM195.476 4.27273H193.612V2.18182H192.271V4.27273H190.953V5.40909H192.271V10.8636C192.271 12.3864 193.499 13.1136 194.635 13.1136C195.135 13.1136 195.453 13.0227 195.635 12.9545L195.362 11.75C195.249 11.7727 195.067 11.8182 194.771 11.8182C194.18 11.8182 193.612 11.6364 193.612 10.5V5.40909H195.476V4.27273ZM204.561 13.2045C206.084 13.2045 206.879 12.3864 207.152 11.8182H207.22V13H208.561V7.25C208.561 4.47727 206.447 4.15909 205.334 4.15909C204.016 4.15909 202.516 4.61364 201.834 6.20455L203.107 6.65909C203.402 6.02273 204.101 5.34091 205.379 5.34091C206.612 5.34091 207.22 5.99432 207.22 7.11364V7.15909C207.22 7.80682 206.561 7.75 204.97 7.95455C203.351 8.16477 201.584 8.52273 201.584 10.5227C201.584 12.2273 202.902 13.2045 204.561 13.2045ZM204.766 12C203.697 12 202.925 11.5227 202.925 10.5909C202.925 9.56818 203.857 9.25 204.902 9.11364C205.47 9.04545 206.993 8.88636 207.22 8.61364V9.84091C207.22 10.9318 206.357 12 204.766 12ZM212.349 1.36364H211.009V13H212.349V1.36364ZM216.146 1.36364H214.805V13H216.146V1.36364ZM223.102 13H224.443V7.47727C224.443 6.29545 225.375 5.43182 226.648 5.43182C227.006 5.43182 227.375 5.5 227.466 5.52273V4.15909C227.312 4.14773 226.96 4.13636 226.761 4.13636C225.716 4.13636 224.807 4.72727 224.489 5.59091H224.398V4.27273H223.102V13ZM229.055 13H230.396V4.27273H229.055V13ZM229.737 2.81818C230.26 2.81818 230.692 2.40909 230.692 1.90909C230.692 1.40909 230.26 1 229.737 1C229.214 1 228.783 1.40909 228.783 1.90909C228.783 2.40909 229.214 2.81818 229.737 2.81818ZM236.375 16.4545C238.466 16.4545 240.148 15.5 240.148 13.25V4.27273H238.852V5.65909H238.716C238.42 5.20455 237.875 4.15909 236.17 4.15909C233.966 4.15909 232.443 5.90909 232.443 8.59091C232.443 11.3182 234.034 12.8636 236.148 12.8636C237.852 12.8636 238.398 11.8636 238.693 11.3864H238.807V13.1591C238.807 14.6136 237.784 15.2727 236.375 15.2727C234.79 15.2727 234.233 14.4375 233.875 13.9545L232.807 14.7045C233.352 15.6193 234.426 16.4545 236.375 16.4545ZM236.33 11.6591C234.648 11.6591 233.784 10.3864 233.784 8.56818C233.784 6.79545 234.625 5.36364 236.33 5.36364C237.966 5.36364 238.83 6.68182 238.83 8.56818C238.83 10.5 237.943 11.6591 236.33 11.6591ZM243.943 7.75C243.943 6.22727 244.915 5.36364 246.239 5.36364C247.5 5.36364 248.261 6.15909 248.261 7.54545V13H249.602V7.45455C249.602 5.21023 248.409 4.15909 246.625 4.15909C245.25 4.15909 244.466 4.73295 244.057 5.63636H243.943V1.36364H242.602V13H243.943V7.75ZM255.851 4.27273H253.987V2.18182H252.646V4.27273H251.328V5.40909H252.646V10.8636C252.646 12.3864 253.874 13.1136 255.01 13.1136C255.51 13.1136 255.828 13.0227 256.01 12.9545L255.737 11.75C255.624 11.7727 255.442 11.8182 255.146 11.8182C254.555 11.8182 253.987 11.6364 253.987 10.5V5.40909H255.851V4.27273ZM263.893 6.22727C263.473 4.98864 262.53 4.15909 260.803 4.15909C258.962 4.15909 257.598 5.20455 257.598 6.68182C257.598 7.88636 258.314 8.69318 259.916 9.06818L261.371 9.40909C262.251 9.61364 262.666 10.0341 262.666 10.6364C262.666 11.3864 261.871 12 260.621 12C259.524 12 258.837 11.5284 258.598 10.5909L257.325 10.9091C257.638 12.392 258.859 13.1818 260.643 13.1818C262.672 13.1818 264.053 12.0739 264.053 10.5682C264.053 9.35227 263.291 8.58523 261.734 8.20455L260.439 7.88636C259.405 7.63068 258.939 7.28409 258.939 6.61364C258.939 5.86364 259.734 5.31818 260.803 5.31818C261.973 5.31818 262.456 5.96591 262.689 6.56818L263.893 6.22727ZM270.571 13H271.912V7.47727C271.912 6.29545 272.844 5.43182 274.116 5.43182C274.474 5.43182 274.844 5.5 274.935 5.52273V4.15909C274.781 4.14773 274.429 4.13636 274.23 4.13636C273.185 4.13636 272.276 4.72727 271.957 5.59091H271.866V4.27273H270.571V13ZM279.918 13.1818C281.69 13.1818 282.986 12.2955 283.395 10.9773L282.099 10.6136C281.759 11.5227 280.969 11.9773 279.918 11.9773C278.344 11.9773 277.259 10.9602 277.196 9.09091H283.531V8.52273C283.531 5.27273 281.599 4.15909 279.781 4.15909C277.418 4.15909 275.849 6.02273 275.849 8.70455C275.849 11.3864 277.395 13.1818 279.918 13.1818ZM277.196 7.93182C277.287 6.57386 278.247 5.36364 279.781 5.36364C281.236 5.36364 282.168 6.45455 282.168 7.93182H277.196ZM291.753 6.22727C291.332 4.98864 290.389 4.15909 288.662 4.15909C286.821 4.15909 285.457 5.20455 285.457 6.68182C285.457 7.88636 286.173 8.69318 287.776 9.06818L289.23 9.40909C290.111 9.61364 290.526 10.0341 290.526 10.6364C290.526 11.3864 289.73 12 288.48 12C287.384 12 286.696 11.5284 286.457 10.5909L285.185 10.9091C285.497 12.392 286.719 13.1818 288.503 13.1818C290.531 13.1818 291.912 12.0739 291.912 10.5682C291.912 9.35227 291.151 8.58523 289.594 8.20455L288.298 7.88636C287.264 7.63068 286.798 7.28409 286.798 6.61364C286.798 5.86364 287.594 5.31818 288.662 5.31818C289.832 5.31818 290.315 5.96591 290.548 6.56818L291.753 6.22727ZM297.589 13.1818C299.362 13.1818 300.658 12.2955 301.067 10.9773L299.771 10.6136C299.43 11.5227 298.641 11.9773 297.589 11.9773C296.016 11.9773 294.93 10.9602 294.868 9.09091H301.203V8.52273C301.203 5.27273 299.271 4.15909 297.453 4.15909C295.089 4.15909 293.521 6.02273 293.521 8.70455C293.521 11.3864 295.067 13.1818 297.589 13.1818ZM294.868 7.93182C294.959 6.57386 295.919 5.36364 297.453 5.36364C298.908 5.36364 299.839 6.45455 299.839 7.93182H294.868ZM303.243 13H304.584V7.47727C304.584 6.29545 305.516 5.43182 306.788 5.43182C307.146 5.43182 307.516 5.5 307.607 5.52273V4.15909C307.453 4.14773 307.101 4.13636 306.902 4.13636C305.857 4.13636 304.947 4.72727 304.629 5.59091H304.538V4.27273H303.243V13ZM316.598 4.27273H315.143L312.734 11.2273H312.643L310.234 4.27273H308.78L312.007 13H313.371L316.598 4.27273ZM321.714 13.1818C323.487 13.1818 324.783 12.2955 325.192 10.9773L323.896 10.6136C323.555 11.5227 322.766 11.9773 321.714 11.9773C320.141 11.9773 319.055 10.9602 318.993 9.09091H325.328V8.52273C325.328 5.27273 323.396 4.15909 321.578 4.15909C319.214 4.15909 317.646 6.02273 317.646 8.70455C317.646 11.3864 319.192 13.1818 321.714 13.1818ZM318.993 7.93182C319.084 6.57386 320.044 5.36364 321.578 5.36364C323.033 5.36364 323.964 6.45455 323.964 7.93182H318.993ZM330.663 13.1818C332.345 13.1818 332.913 12.1364 333.209 11.6591H333.368V13H334.663V1.36364H333.322V5.65909H333.209C332.913 5.20455 332.391 4.15909 330.686 4.15909C328.482 4.15909 326.959 5.90909 326.959 8.65909C326.959 11.4318 328.482 13.1818 330.663 13.1818ZM330.845 11.9773C329.163 11.9773 328.3 10.5 328.3 8.63636C328.3 6.79545 329.141 5.36364 330.845 5.36364C332.482 5.36364 333.345 6.68182 333.345 8.63636C333.345 10.6136 332.459 11.9773 330.845 11.9773Z" fill="black"/>
</svg>
